<svg viewBox="0 0 16 16" fill="none" xmlns="http://www.w3.org/2000/svg"><path d="M9.59 6.971a1.688 1.688 0 0 0-1.383-.736c-.568 0-1.075.292-1.383.736A1.839 1.839 0 0 0 6.502 8c0 .965.766 1.752 1.705 1.752.938 0 1.704-.787 1.704-1.752 0-.381-.123-.737-.321-1.029z" fill="#4F4F4F"/><path d="M10.665 6.984c.123.254.197.66.197 1.016 0 1.498-1.185 2.73-2.655 2.73-1.47 0-2.655-1.219-2.655-2.73 0-.368.074-.762.197-1.016H4.255v4.076c0 .534.457 1.003.976 1.003h5.952c.52 0 .976-.47.976-1.003V6.984h-1.494zm1.049-2.819h-1.432v1.689h1.63V4.152l-.198.013z" fill="#4F4F4F"/><path d="M12.085 0H4.329C2.18 0 .426 1.803.426 4.013V12c0 2.197 1.754 4 3.903 4h7.768C14.247 16 16 14.197 16 11.987V4.013C15.988 1.803 14.234 0 12.085 0zm.939 6.971v4.09c0 1.066-.803 1.891-1.84 1.891H5.23c-1.038 0-1.84-.825-1.84-1.892V4.94c0-1.067.802-1.892 1.84-1.892h5.952c1.038 0 1.84.825 1.84 1.892v2.03z" fill="#4F4F4F"/></svg>