<svg viewBox="0 0 16 16" fill="none" xmlns="http://www.w3.org/2000/svg">
<path d="M3.08758 0.736508C2.77882 0.292064 2.27246 1.93762e-07 1.70435 1.93762e-07C1.13623 1.93762e-07 0.629867 0.292064 0.321109 0.736508C0.123503 1.02857 9.42256e-08 1.38413 9.42256e-08 1.76508C9.42256e-08 2.73016 0.765721 3.51746 1.70435 3.51746C2.64297 3.51746 3.40869 2.73016 3.40869 1.76508C3.40869 1.38413 3.28519 1.02857 3.08758 0.736508Z" transform="translate(6.50244 6.23486)" fill="#4F4F4F"/>
<path d="M6.40982 -9.68812e-08C6.53333 0.253968 6.60743 0.660317 6.60743 1.01587C6.60743 2.51429 5.4218 3.74603 3.95211 3.74603C2.48242 3.74603 1.29679 2.52698 1.29679 1.01587C1.29679 0.647619 1.37089 0.253968 1.49439 -9.68812e-08H0V4.07619C0 4.60952 0.456963 5.07937 0.975677 5.07937H6.92854C7.44725 5.07937 7.90421 4.60952 7.90421 4.07619V-9.68812e-08H6.40982Z" transform="translate(4.25488 6.98413)" fill="#4F4F4F"/>
<path d="M1.43264 0.0126982H3.76902e-07V1.70159H1.63024V0.228571V0L1.43264 0.0126982Z" transform="translate(10.2817 4.15234)" fill="#4F4F4F"/>
<path d="M11.6587 0H3.90271C1.75375 0 0 1.80317 0 4.0127V12C0 14.1968 1.75375 16 3.90271 16H11.6711C13.82 16 15.5738 14.1968 15.5738 11.9873V4.0127C15.5614 1.80317 13.8077 0 11.6587 0ZM12.5973 6.97143V11.0603C12.5973 12.127 11.7946 12.9524 10.7571 12.9524H4.80428C3.76685 12.9524 2.96408 12.127 2.96408 11.0603V6.97143V4.93968C2.96408 3.87302 3.76685 3.04762 4.80428 3.04762H10.7571C11.7946 3.04762 12.5973 3.87302 12.5973 4.93968V6.97143Z" transform="translate(0.42627)" fill="#4F4F4F"/>
</svg>
